<svg width="71" height="69" viewBox="0 0 71 69" fill="none" xmlns="http://www.w3.org/2000/svg">
<path d="M35.9363 68.1865C19.1001 68.1865 0.936279 57.6262 0.936279 34.4538C0.936279 11.2814 19.1001 0.721008 35.9363 0.721008C45.2897 0.721008 53.919 3.79859 60.3156 9.41066C67.2552 15.5658 70.9363 24.2555 70.9363 34.4538C70.9363 44.652 67.2552 53.2813 60.3156 59.4365C53.919 65.0486 45.2294 68.1865 35.9363 68.1865Z" fill="url(#paint0_radial_64_384)"/>
<path d="M64.8354 14.4012C68.0518 19.5908 69.7294 25.7702 69.7294 32.6434C69.7294 42.8417 66.0483 51.471 59.1087 57.6262C52.7121 63.2383 44.0225 66.3762 34.7294 66.3762C23.8311 66.3762 12.4018 61.9408 5.65524 52.5331C12.1483 63.19 24.3621 68.1865 35.9363 68.1865C45.2294 68.1865 53.919 65.0486 60.3156 59.4365C67.2552 53.2814 70.9363 44.652 70.9363 34.4538C70.9363 26.7658 68.8423 19.9348 64.8354 14.4012Z" fill="#EB8F00"/>
<path d="M36.4191 46.7641C34.2587 46.7641 32.1165 46.4021 30.0828 45.6779C27.5785 44.815 24.857 46.1486 23.9941 48.6469C23.5053 50.059 23.7044 51.6159 24.5311 52.859C27.1259 56.8417 31.2294 59.0141 36.4191 59.0141C41.6087 59.0141 45.7122 56.8417 48.307 52.859C49.7734 50.6564 49.1699 47.6814 46.9673 46.215C45.7242 45.3883 44.1673 45.1891 42.7553 45.6779C40.7216 46.4021 38.5794 46.7641 36.4191 46.7641Z" fill="#422B0D"/>
<path opacity="0.8" d="M18.1949 50.3245C24.0272 50.3245 28.7552 45.8666 28.7552 40.3676C28.7552 34.8686 24.0272 30.4107 18.1949 30.4107C12.3626 30.4107 7.63455 34.8686 7.63455 40.3676C7.63455 45.8666 12.3626 50.3245 18.1949 50.3245Z" fill="url(#paint1_radial_64_384)"/>
<path opacity="0.8" d="M54.6432 50.3245C60.4755 50.3245 65.2035 45.8666 65.2035 40.3676C65.2035 34.8686 60.4755 30.4107 54.6432 30.4107C48.8109 30.4107 44.0828 34.8686 44.0828 40.3676C44.0828 45.8666 48.8109 50.3245 54.6432 50.3245Z" fill="url(#paint2_radial_64_384)"/>
<path d="M62.482 17.2374C57.5277 15.8434 53.8889 19.8926 53.8889 19.8926C53.8889 19.8926 53.4665 15.3003 49.2303 13.8581C44.1492 12.1141 38.7846 14.89 38.4647 22.0891C38.1027 30.29 48.9527 41.0555 48.9527 41.0555C48.9527 41.0555 62.4216 37.4348 66.8328 29.759C70.4234 23.5133 66.2294 18.2874 62.482 17.2374Z" fill="#F44336"/>
<path d="M62.482 17.2374C61.8725 17.0745 61.2449 17.002 60.6173 17.0141C62.3915 18.2029 63.7975 19.8624 64.6725 21.8055C65.5234 23.8512 65.7466 26.4943 64.1294 29.6503C60.6234 36.5115 49.8277 40.7598 49.0432 41.0555C50.0268 40.7779 62.6147 37.1572 66.857 29.777C70.4234 23.5132 66.2294 18.2874 62.482 17.2374Z" fill="#C62828"/>
<path d="M53.8828 20.6348C53.8466 20.0072 53.7501 19.3797 53.6053 18.7641C53.2553 16.99 52.157 15.4512 50.588 14.54C49.5139 13.9124 48.3251 13.5141 47.0941 13.3633C47.0941 13.3633 48.9044 13.9124 50.1958 16.4167C50.8535 17.7322 51.2458 19.1685 51.3423 20.6348C51.3363 21.1719 51.4328 21.6969 51.626 22.1978C51.8432 22.6986 52.3742 22.9943 52.9173 22.9098C53.7441 22.6986 53.9251 21.6667 53.8828 20.6348Z" fill="#C62828"/>
<path d="M42.1518 17.7563C43.2802 16.3563 45.1328 15.0227 46.907 16.2537C47.8483 16.9115 47.8604 18.7762 46.7078 19.615C44.7647 21.0391 44.6742 21.9744 44.457 22.7589C44.1914 23.6943 44.0225 24.8106 43.1716 25.2813C42.3208 25.752 41.5725 25.2813 41.1259 23.9356C40.3656 21.8356 40.7518 19.4943 42.1518 17.7563Z" fill="#FF847A"/>
<path d="M22.1294 13.7374C17.2354 15.3244 16.4509 20.7132 16.4509 20.7132C16.4509 20.7132 13.5544 17.0925 9.20956 18.2632C4.02594 19.627 1.09921 24.9132 4.79835 31.0744C9.08283 38.1348 24.0725 41.0615 24.0725 41.0615C24.0725 41.0615 33.2751 30.5857 32.6958 21.7512C32.219 14.5581 25.8285 12.5365 22.1294 13.7374Z" fill="#F44336"/>
<path d="M22.1294 13.7374C21.532 13.9305 20.9587 14.2081 20.4337 14.5581C22.5699 14.5641 24.6578 15.1676 26.4682 16.3021C28.3147 17.509 29.9621 19.609 30.3725 23.1391C31.2595 30.7969 24.6216 40.3133 24.1087 41.0072C24.7785 40.2348 33.2449 30.2417 32.6897 21.7452C32.219 14.5581 25.8285 12.5365 22.1294 13.7374Z" fill="#C62828"/>
<path d="M16.8673 21.3469C16.4932 20.834 16.0707 20.3633 15.6001 19.9408C14.3328 18.6495 12.5768 17.9615 10.7725 18.0581C9.5354 18.1305 8.32247 18.4503 7.21213 19.0115C7.21213 19.0115 9.02247 18.4624 11.4845 19.8383C12.7699 20.5805 13.8863 21.5762 14.7794 22.759C15.069 23.2115 15.4432 23.5977 15.8837 23.9055C16.3423 24.2012 16.9457 24.1469 17.3501 23.7788C17.8871 23.1271 17.4707 22.1736 16.8673 21.3469Z" fill="#C62828"/>
<path d="M5.5225 25.4624C5.54663 24.9555 5.63715 24.4546 5.78801 23.9718C6.03543 22.9581 6.75353 22.1193 7.71301 21.715C8.63629 21.4253 9.9156 21.6305 10.4104 22.5537C10.8509 23.3744 10.5311 24.3641 10.2897 25.2693C10.0725 26.3072 9.95181 27.3693 9.92767 28.4313C9.9337 29.3003 9.23974 30.0063 8.37077 30.0184C7.55008 30.0184 6.91043 29.3063 6.45181 28.6244C5.81215 27.6951 5.48629 26.5908 5.5225 25.4624Z" fill="#FF847A"/>
<defs>
<radialGradient id="paint0_radial_64_384" cx="0" cy="0" r="1" gradientUnits="userSpaceOnUse" gradientTransform="translate(35.9363 34.4538) scale(34.3722)">
<stop offset="0.5" stop-color="#FDE030"/>
<stop offset="0.92" stop-color="#F7C02B"/>
<stop offset="1" stop-color="#F4A223"/>
</radialGradient>
<radialGradient id="paint1_radial_64_384" cx="0" cy="0" r="1" gradientUnits="userSpaceOnUse" gradientTransform="translate(18.1949 35.7878) scale(11.5089 10.3345)">
<stop stop-color="#ED7770"/>
<stop offset="0.9" stop-color="#ED7770" stop-opacity="0"/>
</radialGradient>
<radialGradient id="paint2_radial_64_384" cx="0" cy="0" r="1" gradientUnits="userSpaceOnUse" gradientTransform="translate(71.8535 1521.77) scale(11.7431 11.7431)">
<stop stop-color="#ED7770"/>
<stop offset="0.9" stop-color="#ED7770" stop-opacity="0"/>
</radialGradient>
</defs>
</svg>
