<svg width="15" height="15" viewBox="0 0 15 15" fill="none" xmlns="http://www.w3.org/2000/svg">
<path d="M6.09397 3.75001V0H2.8126C2.06665 0 1.35126 0.296317 0.823791 0.823765C0.296327 1.35121 0 2.06659 0 2.81251V3.75001H6.09397ZM7.26682 11.6344L10.4826 14.8754C10.5216 14.9149 10.5681 14.9462 10.6194 14.9676C10.6706 14.989 10.7256 15 10.7812 15C10.8367 15 10.8917 14.989 10.9429 14.9676C10.9942 14.9462 11.0407 14.9149 11.0798 14.8754L14.2964 11.6344C14.7472 11.1785 15 10.5632 15 9.92207C15 9.28094 14.7472 8.66566 14.2964 8.20972C14.0743 7.9846 13.8097 7.80585 13.5179 7.68385C13.2261 7.56184 12.913 7.49902 12.5967 7.49902C12.2804 7.49902 11.9673 7.56184 11.6755 7.68385C11.3837 7.80585 11.1191 7.9846 10.8969 8.20972L10.7816 8.32503L10.6663 8.20972C10.4261 7.96647 10.1364 7.77757 9.81695 7.65579C9.49747 7.534 9.15559 7.48216 8.81437 7.50375C8.47315 7.52534 8.14053 7.61987 7.83895 7.78095C7.53738 7.94204 7.27386 8.16593 7.06619 8.43753C6.70785 8.90476 6.53076 9.4859 6.56764 10.0736C6.60452 10.6612 6.85288 11.2157 7.26682 11.6344ZM6.09397 13.125V11.64C5.78687 11.1196 5.62489 10.5264 5.62489 9.92207C5.62489 9.31778 5.78687 8.72454 6.09397 8.20409V4.68752H0V10.3125C0 11.0585 0.296327 11.7738 0.823791 12.3013C1.35126 12.8287 2.06665 13.125 2.8126 13.125H6.09397ZM10.7816 7.10065C11.4741 6.64982 12.3096 6.4727 13.1255 6.60377V2.81251C13.1255 2.06659 12.8291 1.35121 12.3017 0.823765C11.7742 0.296317 11.0588 0 10.3129 0H7.0315V7.18221C7.57605 6.79347 8.22507 6.57777 8.89399 6.56322C9.56291 6.54867 10.2207 6.73595 10.7816 7.10065Z" fill="black"/>
</svg>
