<svg width="15" height="15" viewBox="0 0 15 15" fill="none" xmlns="http://www.w3.org/2000/svg">
<path fill-rule="evenodd" clip-rule="evenodd" d="M0.704976 0.471429C1.00608 0.169945 1.41459 0.000375112 1.84069 0L7.82676 0C8.25286 0.000375112 8.66137 0.169945 8.96248 0.471429L12.6203 4.12929C12.9218 4.43039 13.0914 4.8389 13.0918 5.265V13.3929C13.0918 13.8191 12.9224 14.2279 12.621 14.5293C12.3196 14.8307 11.9109 15 11.4846 15H1.84176C1.41552 15 1.00674 14.8307 0.70534 14.5293C0.403943 14.2279 0.234619 13.8191 0.234619 13.3929V1.60714C0.234619 1.18071 0.402833 0.771429 0.704976 0.471429ZM5.71069 4.85036C5.79673 4.91165 5.86984 4.9893 5.92584 5.07887C5.98184 5.16845 6.01962 5.26818 6.03704 5.37237C6.05445 5.47656 6.05115 5.58317 6.02733 5.68608C6.0035 5.789 5.95962 5.8862 5.89819 5.97214L4.4014 8.06786C4.33353 8.16268 4.24583 8.2416 4.1444 8.29913C4.04297 8.35665 3.93023 8.39142 3.81401 8.401C3.69779 8.41058 3.58088 8.39476 3.47139 8.35462C3.3619 8.31448 3.26246 8.251 3.17998 8.16857L2.28212 7.27071C2.14018 7.11838 2.0629 6.91691 2.06657 6.70873C2.07025 6.50055 2.15458 6.30192 2.30181 6.15469C2.44904 6.00746 2.64767 5.92313 2.85585 5.91946C3.06402 5.91578 3.2655 5.99306 3.41783 6.135L3.64498 6.36107L4.58998 5.03893C4.71374 4.86547 4.90134 4.74827 5.11151 4.71311C5.32168 4.67795 5.5372 4.72663 5.71069 4.85036ZM6.72855 6.82929C6.72855 6.61617 6.81321 6.41177 6.96391 6.26107C7.11461 6.11038 7.319 6.02571 7.53212 6.02571H10.2107C10.4238 6.02571 10.6282 6.11038 10.7789 6.26107C10.9296 6.41177 11.0143 6.61617 11.0143 6.82929C11.0143 7.04241 10.9296 7.2468 10.7789 7.3975C10.6282 7.5482 10.4238 7.63286 10.2107 7.63286H7.53212C7.319 7.63286 7.11461 7.5482 6.96391 7.3975C6.81321 7.2468 6.72855 7.04241 6.72855 6.82929ZM6.72855 11.0818C6.72855 10.8687 6.81321 10.6643 6.96391 10.5136C7.11461 10.3629 7.319 10.2782 7.53212 10.2782H10.2107C10.4238 10.2782 10.6282 10.3629 10.7789 10.5136C10.9296 10.6643 11.0143 10.8687 11.0143 11.0818C11.0143 11.2949 10.9296 11.4993 10.7789 11.65C10.6282 11.8007 10.4238 11.8854 10.2107 11.8854H7.53212C7.319 11.8854 7.11461 11.8007 6.96391 11.65C6.81321 11.4993 6.72855 11.2949 6.72855 11.0818ZM5.89819 10.2911C5.96248 10.2054 6.00899 10.1078 6.035 10.0039C6.06101 9.89998 6.06599 9.79194 6.04964 9.68609C6.0333 9.58025 5.99596 9.47874 5.93982 9.38753C5.88368 9.29632 5.80988 9.21726 5.72275 9.15498C5.63562 9.09271 5.53692 9.04847 5.43245 9.02489C5.32798 9.0013 5.21985 8.99884 5.11442 9.01764C5.00898 9.03644 4.90837 9.07613 4.81849 9.13437C4.72861 9.19261 4.65128 9.26823 4.59105 9.35679L3.64498 10.68L3.41783 10.4529C3.2655 10.3109 3.06402 10.2336 2.85585 10.2373C2.64767 10.241 2.44904 10.3253 2.30181 10.4725C2.15458 10.6198 2.07025 10.8184 2.06657 11.0266C2.0629 11.2348 2.14018 11.4362 2.28212 11.5886L3.17998 12.4864C3.26246 12.5689 3.3619 12.6323 3.47139 12.6725C3.58088 12.7126 3.69779 12.7284 3.81401 12.7189C3.93023 12.7093 4.04297 12.6745 4.1444 12.617C4.24583 12.5595 4.33353 12.4805 4.4014 12.3857L5.89819 10.2911Z" fill="white"/>
</svg>
