<svg width="50" height="50" viewBox="0 0 50 50" fill="none" xmlns="http://www.w3.org/2000/svg">
<g clip-path="url(#clip0_93_346)">
<mask id="mask0_93_346" style="mask-type:luminance" maskUnits="userSpaceOnUse" x="0" y="0" width="50" height="50">
<path d="M0 0H50V50H0V0Z" fill="white"/>
<path fill-rule="evenodd" clip-rule="evenodd" d="M9.61536 21.1538C9.61536 20.6438 9.81797 20.1547 10.1786 19.794C10.5393 19.4334 11.0284 19.2308 11.5384 19.2308H31.3615C31.8715 19.2308 32.3607 19.4334 32.7213 19.794C33.082 20.1547 33.2846 20.6438 33.2846 21.1538C33.2846 21.6639 33.082 22.153 32.7213 22.5137C32.3607 22.8743 31.8715 23.0769 31.3615 23.0769H11.5384C11.0284 23.0769 10.5393 22.8743 10.1786 22.5137C9.81797 22.153 9.61536 21.6639 9.61536 21.1538ZM9.61536 13.4615C9.61536 12.9515 9.81797 12.4624 10.1786 12.1017C10.5393 11.7411 11.0284 11.5385 11.5384 11.5385H38.4615C38.9715 11.5385 39.4607 11.7411 39.8213 12.1017C40.182 12.4624 40.3846 12.9515 40.3846 13.4615C40.3846 13.9716 40.182 14.4607 39.8213 14.8213C39.4607 15.182 38.9715 15.3846 38.4615 15.3846H11.5384C11.0284 15.3846 10.5393 15.182 10.1786 14.8213C9.81797 14.4607 9.61536 13.9716 9.61536 13.4615ZM9.61536 28.8461C9.61536 28.3361 9.81797 27.847 10.1786 27.4863C10.5393 27.1257 11.0284 26.9231 11.5384 26.9231H38.4615C38.9715 26.9231 39.4607 27.1257 39.8213 27.4863C40.182 27.847 40.3846 28.3361 40.3846 28.8461C40.3846 29.3562 40.182 29.8453 39.8213 30.206C39.4607 30.5666 38.9715 30.7692 38.4615 30.7692H11.5384C11.0284 30.7692 10.5393 30.5666 10.1786 30.206C9.81797 29.8453 9.61536 29.3562 9.61536 28.8461ZM9.61536 36.5385C9.61536 36.0284 9.81797 35.5393 10.1786 35.1786C10.5393 34.818 11.0284 34.6154 11.5384 34.6154H31.3615C31.8715 34.6154 32.3607 34.818 32.7213 35.1786C33.082 35.5393 33.2846 36.0284 33.2846 36.5385C33.2846 37.0485 33.082 37.5376 32.7213 37.8983C32.3607 38.2589 31.8715 38.4615 31.3615 38.4615H11.5384C11.0284 38.4615 10.5393 38.2589 10.1786 37.8983C9.81797 37.5376 9.61536 37.0485 9.61536 36.5385Z" fill="black"/>
</mask>
<g mask="url(#mask0_93_346)">
<path d="M25 50C38.8071 50 50 38.8071 50 25C50 11.1929 38.8071 0 25 0C11.1929 0 0 11.1929 0 25C0 38.8071 11.1929 50 25 50Z" fill="black"/>
</g>
</g>
<defs>
<clipPath id="clip0_93_346">
<rect width="50" height="50" fill="white"/>
</clipPath>
</defs>
</svg>
