<svg width="20" height="20" viewBox="0 0 20 20" fill="none" xmlns="http://www.w3.org/2000/svg">
<path d="M9.40066 16.1601L16.7964 8.76441C15.5521 8.2449 14.422 7.48587 13.4705 6.53049C12.5147 5.57873 11.7553 4.44833 11.2356 3.20361L3.83986 10.5993C3.26288 11.1763 2.97389 11.4653 2.7259 11.7833C2.43302 12.1586 2.18188 12.5646 1.97692 12.9943C1.80393 13.3582 1.67494 13.7462 1.41694 14.5202L0.0549935 18.6031C-0.00769048 18.79 -0.0169906 18.9907 0.0281383 19.1826C0.0732672 19.3746 0.171036 19.5501 0.310456 19.6895C0.449875 19.829 0.625418 19.9267 0.817353 19.9719C1.00929 20.017 1.21001 20.0077 1.39695 19.945L5.4798 18.5831C6.25477 18.3251 6.64176 18.1961 7.00574 18.0231C7.43573 17.8181 7.84171 17.5671 8.2167 17.2741C8.53469 17.0261 8.82368 16.7371 9.40066 16.1601ZM18.8483 6.71248C19.5857 5.97507 20 4.97493 20 3.93208C20 2.88923 19.5857 1.88909 18.8483 1.15168C18.1109 0.414271 17.1108 7.76986e-09 16.0679 0C15.0251 -7.76986e-09 14.0249 0.414271 13.2875 1.15168L12.4006 2.03865L12.4385 2.14964C12.8756 3.40032 13.5909 4.53546 14.5305 5.46952C15.4925 6.43719 16.6674 7.16657 17.9614 7.59945L18.8483 6.71248Z" fill="white"/>
</svg>
