<svg width="19" height="19" viewBox="0 0 19 19" fill="none" xmlns="http://www.w3.org/2000/svg">
<g clip-path="url(#clip0_33_1748)">
<path fill-rule="evenodd" clip-rule="evenodd" d="M16.0435 0.132869C16.4367 -0.0104317 16.8627 -0.0384975 17.2714 0.0519701C17.6801 0.142438 18.0544 0.347679 18.3504 0.643573C18.6465 0.939466 18.8519 1.31372 18.9426 1.72234C19.0332 2.13096 19.0054 2.55697 18.8623 2.9503L14.0118 17.488C13.8938 17.8453 13.6861 18.1662 13.4086 18.4203C13.131 18.6743 12.793 18.8528 12.4267 18.9388C12.0613 19.0278 11.679 19.0203 11.3174 18.917C10.9558 18.8138 10.6272 18.6183 10.3638 18.3498L7.76083 15.759L5.02755 17.1732C4.92277 17.2275 4.80564 17.2535 4.68771 17.2488C4.56979 17.244 4.45514 17.2085 4.35511 17.1459C4.25507 17.0833 4.17309 16.9957 4.11728 16.8917C4.06146 16.7877 4.03374 16.6709 4.03683 16.5529L4.14948 12.2318L13.7105 5.2873C13.8007 5.2218 13.8771 5.13918 13.9354 5.04416C13.9936 4.94914 14.0326 4.84357 14.05 4.73349C14.0675 4.62341 14.0631 4.51097 14.0371 4.40259C14.0111 4.29421 13.964 4.19201 13.8985 4.10183C13.833 4.01165 13.7504 3.93526 13.6554 3.877C13.5604 3.81875 13.4548 3.77979 13.3447 3.76233C13.2346 3.74488 13.1222 3.74928 13.0138 3.77528C12.9054 3.80128 12.8032 3.84837 12.713 3.91387L2.99048 10.9764L0.64262 8.62858C0.389585 8.37548 0.203034 8.06375 0.0995634 7.72114C-0.00390688 7.37853 -0.021088 7.01565 0.0495485 6.6648C0.120571 6.28122 0.292373 5.92344 0.547325 5.62818C0.802278 5.33292 1.1312 5.11082 1.50033 4.98465H1.50441L16.0421 0.131512L16.0435 0.132869Z" fill="white"/>
</g>
<defs>
<clipPath id="clip0_33_1748">
<rect width="19" height="19" fill="white"/>
</clipPath>
</defs>
</svg>
