<svg width="15" height="15" viewBox="0 0 15 15" fill="none" xmlns="http://www.w3.org/2000/svg">
<path d="M2.5 11H3.75V14.4008L6.93812 11H10C10.6894 11 11.25 10.2525 11.25 9.33333V2.66667C11.25 1.7475 10.6894 1 10 1H2.5C1.81062 1 1.25 1.7475 1.25 2.66667V9.33333C1.25 10.2525 1.81062 11 2.5 11Z" fill="white"/>
<path d="M12.5 1.25H5C4.31062 1.25 3.75 1.81062 3.75 2.5H11.25C11.9394 2.5 12.5 3.06062 12.5 3.75V8.75C13.1894 8.75 13.75 8.18938 13.75 7.5V2.5C13.75 1.81062 13.1894 1.25 12.5 1.25Z" fill="white"/>
</svg>
