<svg width="15" height="15" viewBox="0 0 15 15" fill="none" xmlns="http://www.w3.org/2000/svg">
<path d="M13.75 0H1.25C0.918479 0 0.600537 0.131696 0.366116 0.366116C0.131696 0.600537 0 0.918479 0 1.25V13.75C0 14.0815 0.131696 14.3995 0.366116 14.6339C0.600537 14.8683 0.918479 15 1.25 15H13.75C14.0815 15 14.3995 14.8683 14.6339 14.6339C14.8683 14.3995 15 14.0815 15 13.75V1.25C15 0.918479 14.8683 0.600537 14.6339 0.366116C14.3995 0.131696 14.0815 0 13.75 0ZM11.875 8.125H8.125V11.875C8.125 12.0408 8.05915 12.1997 7.94194 12.3169C7.82473 12.4342 7.66576 12.5 7.5 12.5C7.33424 12.5 7.17527 12.4342 7.05806 12.3169C6.94085 12.1997 6.875 12.0408 6.875 11.875V8.125H3.125C2.95924 8.125 2.80027 8.05915 2.68306 7.94194C2.56585 7.82473 2.5 7.66576 2.5 7.5C2.5 7.33424 2.56585 7.17527 2.68306 7.05806C2.80027 6.94085 2.95924 6.875 3.125 6.875H6.875V3.125C6.875 2.95924 6.94085 2.80027 7.05806 2.68306C7.17527 2.56585 7.33424 2.5 7.5 2.5C7.66576 2.5 7.82473 2.56585 7.94194 2.68306C8.05915 2.80027 8.125 2.95924 8.125 3.125V6.875H11.875C12.0408 6.875 12.1997 6.94085 12.3169 7.05806C12.4342 7.17527 12.5 7.33424 12.5 7.5C12.5 7.66576 12.4342 7.82473 12.3169 7.94194C12.1997 8.05915 12.0408 8.125 11.875 8.125Z" fill="#595959"/>
</svg>
