<?xml version="1.0" encoding="utf-8"?>
<!-- Generator: Adobe Illustrator 25.0.1, SVG Export Plug-In . SVG Version: 6.00 Build 0)  -->
<svg version="1.1" id="Layer_1" xmlns="http://www.w3.org/2000/svg" xmlns:xlink="http://www.w3.org/1999/xlink" x="0px" y="0px"
	 viewBox="0 0 40 40" style="enable-background:new 0 0 40 40;" xml:space="preserve">
<style type="text/css">
	.st0{fill-rule:evenodd;clip-rule:evenodd;fill:#F9E600;}
	.st1{fill-rule:evenodd;clip-rule:evenodd;fill:#FF7900;}
	.st2{fill-rule:evenodd;clip-rule:evenodd;fill:#595959;}
	.st3{fill:#FFFFFF;}
</style>
<path class="st0" d="M23.2,41H5c-3.3,0-6-2.7-6-6V18.2c3.1-3.2,7.4-5.2,12.2-5.2c9.2,0,16.7,7.4,16.7,16.5C27.9,34,26.1,38,23.2,41z
	"/>
<path class="st1" d="M18.5-1H35c3.3,0,6,2.7,6,6v24.6c-3.1,2.1-6.8,3.4-10.8,3.4c-10.5,0-19-8.5-19-19C11.2,7.9,14,2.5,18.5-1z"/>
<path class="st2" d="M5.7,24.1c9.2,0,16.7-7.4,16.7-16.5c0-3.1-0.9-6-2.4-8.5H5C1.7-1-1,1.7-1,5v17.7C1,23.6,3.3,24.1,5.7,24.1z"/>
<ellipse class="st3" cx="8.7" cy="17" rx="1.1" ry="1"/>
<ellipse class="st3" cx="8.7" cy="31.9" rx="1.1" ry="1"/>
<ellipse class="st3" cx="12.9" cy="13" rx="1.1" ry="1"/>
<ellipse class="st3" cx="30.1" cy="24.6" rx="1.1" ry="1"/>
<path class="st3" d="M38.3,19.4c0-1.9-0.6-3.7-1.7-5c-1.1-1.3-2.6-2.1-4.2-2.1c-1.6,0-3.1,0.7-4.2,2.1c-1.1,1.3-1.7,3.1-1.7,5h6
	H38.3z"/>
<ellipse class="st3" cx="24.4" cy="22.5" rx="1.1" ry="1"/>
<ellipse class="st3" cx="12.9" cy="31.9" rx="1.1" ry="1"/>
<ellipse class="st3" cx="8.1" cy="12.4" rx="1.7" ry="1.6"/>
</svg>
