<svg width="36" height="36" viewBox="0 0 36 36" fill="none" xmlns="http://www.w3.org/2000/svg">
<path fill-rule="evenodd" clip-rule="evenodd" d="M12.2307 10.7885C12.2307 9.25839 12.8385 7.79097 13.9205 6.70902C15.0024 5.62708 16.4698 5.01926 17.9999 5.01926C19.53 5.01926 20.9975 5.62708 22.0794 6.70902C23.1613 7.79097 23.7692 9.25839 23.7692 10.7885C23.7692 12.3186 23.1613 13.786 22.0794 14.8679C20.9975 15.9499 19.53 16.5577 17.9999 16.5577C16.4698 16.5577 15.0024 15.9499 13.9205 14.8679C12.8385 13.786 12.2307 12.3186 12.2307 10.7885ZM12.2307 19.4423C10.3181 19.4423 8.4838 20.2021 7.13138 21.5545C5.77895 22.907 5.01917 24.7413 5.01917 26.6539C5.01917 27.8014 5.47504 28.902 6.28649 29.7135C7.09795 30.5249 8.19852 30.9808 9.34609 30.9808H26.6538C27.8013 30.9808 28.9019 30.5249 29.7134 29.7135C30.5248 28.902 30.9807 27.8014 30.9807 26.6539C30.9807 24.7413 30.2209 22.907 28.8685 21.5545C27.5161 20.2021 25.6818 19.4423 23.7692 19.4423H12.2307Z" fill="white"/>
</svg>
